<svg width="169" height="264" viewBox="0 0 169 264" fill="none" xmlns="http://www.w3.org/2000/svg">
<path d="M19 10.125C19 7.6386 18.0123 5.25403 16.2541 3.49587C14.496 1.73772 12.1114 0.75 9.625 0.75C7.1386 0.75 4.75403 1.73772 2.99588 3.49587C1.23772 5.25403 0.250001 7.6386 0.250001 10.125V66.375C0.247795 77.1811 3.97922 87.6561 10.8128 96.0272C17.6463 104.398 27.1622 110.151 37.75 112.312V253.875C37.75 256.361 38.7377 258.746 40.4959 260.504C42.254 262.262 44.6386 263.25 47.125 263.25C49.6114 263.25 51.996 262.262 53.7541 260.504C55.5123 258.746 56.5 256.361 56.5 253.875V112.312C67.0878 110.151 76.6037 104.398 83.4372 96.0272C90.2708 87.6561 94.0022 77.1811 94 66.375V10.125C94 7.6386 93.0123 5.25403 91.2541 3.49587C89.496 1.73772 87.1114 0.75 84.625 0.75C82.1386 0.75 79.754 1.73772 77.9959 3.49587C76.2377 5.25403 75.25 7.6386 75.25 10.125V66.375C75.2531 72.1936 73.4514 77.8699 70.0932 82.6217C66.7351 87.3735 61.9858 90.9667 56.5 92.9062V10.125C56.5 7.6386 55.5123 5.25403 53.7541 3.49587C51.996 1.73772 49.6114 0.75 47.125 0.75C44.6386 0.75 42.254 1.73772 40.4959 3.49587C38.7377 5.25403 37.75 7.6386 37.75 10.125V92.9062C32.2642 90.9667 27.5149 87.3735 24.1568 82.6217C20.7986 77.8699 18.997 72.1936 19 66.375V10.125ZM150.25 253.875V132H122.125C119.639 132 117.254 131.012 115.496 129.254C113.738 127.496 112.75 125.111 112.75 122.625V47.625C112.75 35.1937 118.862 23.5688 127.206 15.2063C135.569 6.8625 147.194 0.75 159.625 0.75C162.111 0.75 164.496 1.73772 166.254 3.49587C168.012 5.25403 169 7.6386 169 10.125V253.875C169 256.361 168.012 258.746 166.254 260.504C164.496 262.262 162.111 263.25 159.625 263.25C157.139 263.25 154.754 262.262 152.996 260.504C151.238 258.746 150.25 256.361 150.25 253.875Z" fill="#939393"/>
</svg>
